<svg xmlns="http://www.w3.org/2000/svg" xmlns:xlink="http://www.w3.org/1999/xlink" width="1920" zoomAndPan="magnify" viewBox="0 0 1440 809.999993" height="1080" preserveAspectRatio="xMidYMid meet" version="1.0"><defs><g/><clipPath id="6c49eaff36"><path d="M 156 381 L 450 381 L 450 428 L 156 428 Z M 156 381 " clip-rule="nonzero"/></clipPath><clipPath id="0db80885e5"><path d="M 212 269 L 450 269 L 450 316 L 212 316 Z M 212 269 " clip-rule="nonzero"/></clipPath><clipPath id="9bbdbece16"><path d="M 335 325 L 450 325 L 450 372 L 335 372 Z M 335 325 " clip-rule="nonzero"/></clipPath><clipPath id="7b25028157"><path d="M 223 437 L 450 437 L 450 484 L 223 484 Z M 223 437 " clip-rule="nonzero"/></clipPath><clipPath id="2e889542d0"><path d="M 245 493 L 450 493 L 450 540 L 245 540 Z M 245 493 " clip-rule="nonzero"/></clipPath></defs><g clip-path="url(#6c49eaff36)"><path fill="#0091ff" d="M 578.386719 381.53125 L 340.402344 381.53125 L 330.238281 399.101562 L 306.707031 399.101562 L 296.546875 381.53125 C 287.78125 381.53125 177.980469 381.53125 169.21875 381.53125 L 156.074219 404.296875 L 169.21875 427.058594 C 177.980469 427.058594 287.78125 427.058594 296.546875 427.058594 L 306.707031 409.488281 L 330.238281 409.488281 L 340.402344 427.058594 L 578.386719 427.058594 C 581.007812 412.019531 581.007812 396.617188 578.386719 381.53125 Z M 578.386719 381.53125 " fill-opacity="1" fill-rule="nonzero"/></g><g clip-path="url(#0db80885e5)"><path fill="#0091ff" d="M 251.648438 315.136719 L 261.8125 297.566406 L 285.34375 297.566406 L 295.507812 315.136719 L 546.410156 315.136719 C 499.253906 261.972656 446.363281 269.5625 382.589844 269.5625 L 295.507812 269.5625 L 285.34375 287.132812 L 261.8125 287.132812 L 251.648438 269.5625 L 225.363281 269.5625 L 212.21875 292.328125 L 225.363281 315.089844 L 251.648438 315.089844 Z M 251.648438 315.136719 " fill-opacity="1" fill-rule="nonzero"/></g><g clip-path="url(#9bbdbece16)"><path fill="#0091ff" d="M 408.832031 343.140625 L 385.296875 343.140625 L 375.136719 325.570312 L 348.847656 325.570312 L 335.707031 348.332031 L 348.847656 371.097656 L 375.136719 371.097656 L 385.296875 353.527344 L 408.832031 353.527344 L 418.992188 371.097656 L 576.175781 371.097656 C 571.929688 354.476562 564.566406 339.074219 554.765625 325.523438 L 418.992188 325.523438 Z M 408.832031 343.140625 " fill-opacity="1" fill-rule="nonzero"/></g><path fill="#0091ff" d="M 94.152344 381.53125 L 81.007812 404.296875 L 94.152344 427.105469 L 120.484375 427.105469 L 133.628906 404.296875 L 120.484375 381.53125 Z M 94.152344 381.53125 " fill-opacity="1" fill-rule="nonzero"/><path fill="#0091ff" d="M 260.636719 348.332031 L 273.78125 371.097656 L 300.113281 371.097656 L 313.257812 348.332031 L 300.113281 325.570312 L 273.78125 325.570312 Z M 260.636719 348.332031 " fill-opacity="1" fill-rule="nonzero"/><path fill="#0091ff" d="M 183.988281 493.457031 L 170.800781 516.265625 L 183.988281 539.027344 L 210.277344 539.027344 L 223.417969 516.265625 L 210.277344 493.457031 Z M 183.988281 493.457031 " fill-opacity="1" fill-rule="nonzero"/><g clip-path="url(#7b25028157)"><path fill="#0091ff" d="M 296.546875 455.0625 L 273.011719 455.0625 L 262.851562 437.492188 L 236.5625 437.492188 L 223.417969 460.257812 L 236.5625 483.023438 L 262.851562 483.023438 L 273.011719 465.453125 L 296.546875 465.453125 L 306.707031 483.023438 L 554.71875 483.023438 C 564.519531 469.472656 571.882812 454.070312 576.128906 437.449219 C 493.789062 437.449219 389.003906 437.449219 306.664062 437.449219 Z M 296.546875 455.0625 " fill-opacity="1" fill-rule="nonzero"/></g><g clip-path="url(#2e889542d0)"><path fill="#0091ff" d="M 363.933594 511.070312 L 340.402344 511.070312 L 330.238281 493.5 C 306.527344 493.5 282.769531 493.5 259.011719 493.5 L 245.867188 516.265625 L 259.011719 539.027344 C 282.769531 539.027344 306.480469 539.027344 330.238281 539.027344 L 340.402344 521.457031 L 363.933594 521.457031 L 374.097656 539.027344 C 441.441406 539.027344 498.035156 548.015625 546.410156 493.457031 L 374.097656 493.457031 Z M 363.933594 511.070312 " fill-opacity="1" fill-rule="nonzero"/></g><g fill="#0091ff" fill-opacity="1"><g transform="translate(488.152716, 428.044973)"><g><path d="M 5.828125 -21.671875 C 33.128906 -20.179688 51.613281 -19.4375 61.28125 -19.4375 C 63.570312 -19.4375 65.390625 -20.109375 66.734375 -21.453125 C 68.078125 -22.796875 68.75 -24.613281 68.75 -26.90625 L 68.75 -40.359375 L 34.375 -40.359375 C 23.914062 -40.359375 16.316406 -42.722656 11.578125 -47.453125 C 6.847656 -52.191406 4.484375 -59.789062 4.484375 -70.25 L 4.484375 -74.734375 C 4.484375 -85.191406 6.847656 -92.785156 11.578125 -97.515625 C 16.316406 -102.253906 23.914062 -104.625 34.375 -104.625 L 86.84375 -104.625 L 86.84375 -83.703125 L 40.359375 -83.703125 C 34.378906 -83.703125 31.390625 -80.710938 31.390625 -74.734375 L 31.390625 -71.75 C 31.390625 -65.769531 34.378906 -62.78125 40.359375 -62.78125 L 67.265625 -62.78125 C 77.023438 -62.78125 84.195312 -60.488281 88.78125 -55.90625 C 93.363281 -51.320312 95.65625 -44.144531 95.65625 -34.375 L 95.65625 -26.90625 C 95.65625 -17.132812 93.363281 -9.957031 88.78125 -5.375 C 84.195312 -0.789062 77.023438 1.5 67.265625 1.5 C 62.179688 1.5 56.800781 1.398438 51.125 1.203125 L 37.359375 0.59375 C 27.203125 0.09375 16.691406 -0.601562 5.828125 -1.5 Z M 5.828125 -21.671875 "/></g></g></g><g fill="#0091ff" fill-opacity="1"><g transform="translate(618.191696, 428.044973)"><g><path d="M 100.140625 0 L 71.75 0 L 35.875 -62.78125 L 35.875 0 L 8.96875 0 L 8.96875 -104.625 L 37.359375 -104.625 L 73.234375 -41.84375 L 73.234375 -104.625 L 100.140625 -104.625 Z M 100.140625 0 "/></g></g></g><g fill="#0091ff" fill-opacity="1"><g transform="translate(757.198609, 428.044973)"><g><path d="M 5.828125 -21.671875 C 33.128906 -20.179688 51.613281 -19.4375 61.28125 -19.4375 C 63.570312 -19.4375 65.390625 -20.109375 66.734375 -21.453125 C 68.078125 -22.796875 68.75 -24.613281 68.75 -26.90625 L 68.75 -40.359375 L 34.375 -40.359375 C 23.914062 -40.359375 16.316406 -42.722656 11.578125 -47.453125 C 6.847656 -52.191406 4.484375 -59.789062 4.484375 -70.25 L 4.484375 -74.734375 C 4.484375 -85.191406 6.847656 -92.785156 11.578125 -97.515625 C 16.316406 -102.253906 23.914062 -104.625 34.375 -104.625 L 86.84375 -104.625 L 86.84375 -83.703125 L 40.359375 -83.703125 C 34.378906 -83.703125 31.390625 -80.710938 31.390625 -74.734375 L 31.390625 -71.75 C 31.390625 -65.769531 34.378906 -62.78125 40.359375 -62.78125 L 67.265625 -62.78125 C 77.023438 -62.78125 84.195312 -60.488281 88.78125 -55.90625 C 93.363281 -51.320312 95.65625 -44.144531 95.65625 -34.375 L 95.65625 -26.90625 C 95.65625 -17.132812 93.363281 -9.957031 88.78125 -5.375 C 84.195312 -0.789062 77.023438 1.5 67.265625 1.5 C 62.179688 1.5 56.800781 1.398438 51.125 1.203125 L 37.359375 0.59375 C 27.203125 0.09375 16.691406 -0.601562 5.828125 -1.5 Z M 5.828125 -21.671875 "/></g></g></g><g fill="#0091ff" fill-opacity="1"><g transform="translate(887.237598, 428.044973)"><g><path d="M 59.78125 0 L 32.890625 0 L 32.890625 -83.703125 L 1.5 -83.703125 L 1.5 -104.625 L 91.171875 -104.625 L 91.171875 -83.703125 L 59.78125 -83.703125 Z M 59.78125 0 "/></g></g></g><g fill="#0091ff" fill-opacity="1"><g transform="translate(1009.803269, 428.044973)"><g><path d="M 91.921875 0 L 8.96875 0 L 8.96875 -104.625 L 91.921875 -104.625 L 91.921875 -83.703125 L 35.875 -83.703125 L 35.875 -63.53125 L 79.96875 -63.53125 L 79.96875 -42.59375 L 35.875 -42.59375 L 35.875 -20.921875 L 91.921875 -20.921875 Z M 91.921875 0 "/></g></g></g><g fill="#0091ff" fill-opacity="1"><g transform="translate(1134.610934, 428.044973)"><g><path d="M 89.6875 -1.5 C 67.457031 0.5 49.019531 1.5 34.375 1.5 C 24.613281 1.5 17.441406 -0.789062 12.859375 -5.375 C 8.273438 -9.957031 5.984375 -17.132812 5.984375 -26.90625 L 5.984375 -74.734375 C 5.984375 -85.191406 8.347656 -92.785156 13.078125 -97.515625 C 17.804688 -102.253906 25.40625 -104.625 35.875 -104.625 L 89.6875 -104.625 L 89.6875 -83.703125 L 41.84375 -83.703125 C 35.875 -83.703125 32.890625 -80.710938 32.890625 -74.734375 L 32.890625 -26.90625 C 32.890625 -24.613281 33.5625 -22.796875 34.90625 -21.453125 C 36.25 -20.109375 37.96875 -19.4375 40.0625 -19.4375 C 42.15625 -19.4375 44.445312 -19.457031 46.9375 -19.5 C 49.425781 -19.550781 52.015625 -19.625 54.703125 -19.71875 C 57.390625 -19.820312 60.101562 -19.921875 62.84375 -20.015625 C 65.59375 -20.117188 69.132812 -20.320312 73.46875 -20.625 C 77.800781 -20.925781 83.207031 -21.273438 89.6875 -21.671875 Z M 89.6875 -1.5 "/></g></g></g><g fill="#0091ff" fill-opacity="1"><g transform="translate(1257.176605, 428.044973)"><g><path d="M 100.140625 0 L 73.234375 0 L 73.234375 -42.59375 L 35.875 -42.59375 L 35.875 0 L 8.96875 0 L 8.96875 -104.625 L 35.875 -104.625 L 35.875 -63.53125 L 73.234375 -63.53125 L 73.234375 -104.625 L 100.140625 -104.625 Z M 100.140625 0 "/></g></g></g><g fill="#0091ff" fill-opacity="1"><g transform="translate(500.993944, 482.026902)"><g><path d="M 25.5625 -15.109375 L 20.140625 -5.421875 L 14.71875 -5.421875 L 9.296875 -15.109375 L 9.296875 0 L 2.328125 0 L 2.328125 -27.109375 L 9.6875 -27.109375 L 17.4375 -12.78125 L 25.171875 -27.109375 L 32.53125 -27.109375 L 32.53125 0 L 25.5625 0 Z M 25.5625 -15.109375 "/></g></g></g><g fill="#0091ff" fill-opacity="1"><g transform="translate(557.077309, 482.026902)"><g><path d="M 7.171875 0 L -0.390625 0 L 9.875 -27.109375 L 17.625 -27.109375 L 27.890625 0 L 20.328125 0 L 18.59375 -4.84375 L 8.90625 -4.84375 Z M 10.65625 -9.875 L 16.84375 -9.875 L 13.75 -18.984375 Z M 10.65625 -9.875 "/></g></g></g><g fill="#0091ff" fill-opacity="1"><g transform="translate(605.801655, 482.026902)"><g><path d="M 2.328125 -27.109375 L 18.59375 -27.109375 C 21.300781 -27.109375 23.269531 -26.492188 24.5 -25.265625 C 25.726562 -24.046875 26.34375 -22.082031 26.34375 -19.375 L 26.34375 -15.875 C 26.34375 -13.738281 25.984375 -12.078125 25.265625 -10.890625 C 24.554688 -9.703125 23.429688 -8.910156 21.890625 -8.515625 L 26.734375 0 L 19.171875 0 L 14.71875 -8.140625 L 9.296875 -8.140625 L 9.296875 0 L 2.328125 0 Z M 19.375 -19.375 C 19.375 -20.914062 18.597656 -21.6875 17.046875 -21.6875 L 9.296875 -21.6875 L 9.296875 -13.5625 L 17.046875 -13.5625 C 18.597656 -13.5625 19.375 -14.332031 19.375 -15.875 Z M 19.375 -19.375 "/></g></g></g><g fill="#0091ff" fill-opacity="1"><g transform="translate(654.913301, 482.026902)"><g><path d="M 9.296875 0 L 2.328125 0 L 2.328125 -27.109375 L 9.296875 -27.109375 L 9.296875 -16.46875 L 12.78125 -16.46875 L 18.828125 -27.109375 L 26.1875 -27.109375 L 18.59375 -13.75 L 26.140625 0 L 18.78125 0 L 12.78125 -11.046875 L 9.296875 -11.046875 Z M 9.296875 0 "/></g></g></g><g fill="#0091ff" fill-opacity="1"><g transform="translate(702.320764, 482.026902)"><g><path d="M 23.828125 0 L 2.328125 0 L 2.328125 -27.109375 L 23.828125 -27.109375 L 23.828125 -21.6875 L 9.296875 -21.6875 L 9.296875 -16.46875 L 20.71875 -16.46875 L 20.71875 -11.046875 L 9.296875 -11.046875 L 9.296875 -5.421875 L 23.828125 -5.421875 Z M 23.828125 0 "/></g></g></g><g fill="#0091ff" fill-opacity="1"><g transform="translate(748.140237, 482.026902)"><g><path d="M 15.5 0 L 8.515625 0 L 8.515625 -21.6875 L 0.390625 -21.6875 L 0.390625 -27.109375 L 23.625 -27.109375 L 23.625 -21.6875 L 15.5 -21.6875 Z M 15.5 0 "/></g></g></g><g fill="#0091ff" fill-opacity="1"><g transform="translate(793.378712, 482.026902)"><g><path d="M 15.109375 0 L 1.15625 0 L 1.15625 -5.421875 L 4.640625 -5.421875 L 4.640625 -21.6875 L 1.15625 -21.6875 L 1.15625 -27.109375 L 15.109375 -27.109375 L 15.109375 -21.6875 L 11.625 -21.6875 L 11.625 -5.421875 L 15.109375 -5.421875 Z M 15.109375 0 "/></g></g></g><g fill="#0091ff" fill-opacity="1"><g transform="translate(830.870873, 482.026902)"><g><path d="M 25.953125 0 L 18.59375 0 L 9.296875 -16.265625 L 9.296875 0 L 2.328125 0 L 2.328125 -27.109375 L 9.6875 -27.109375 L 18.984375 -10.84375 L 18.984375 -27.109375 L 25.953125 -27.109375 Z M 25.953125 0 "/></g></g></g><g fill="#0091ff" fill-opacity="1"><g transform="translate(880.369829, 482.026902)"><g><path d="M 25.5625 -0.578125 C 19.519531 0.0664062 13.96875 0.390625 8.90625 0.390625 C 6.375 0.390625 4.515625 -0.203125 3.328125 -1.390625 C 2.140625 -2.578125 1.546875 -4.4375 1.546875 -6.96875 L 1.546875 -19.375 C 1.546875 -22.082031 2.160156 -24.046875 3.390625 -25.265625 C 4.617188 -26.492188 6.585938 -27.109375 9.296875 -27.109375 L 23.234375 -27.109375 L 23.234375 -21.6875 L 10.84375 -21.6875 C 9.289062 -21.6875 8.515625 -20.914062 8.515625 -19.375 L 8.515625 -6.96875 C 8.515625 -6.375 8.6875 -5.898438 9.03125 -5.546875 C 9.382812 -5.203125 9.859375 -5.03125 10.453125 -5.03125 C 13.421875 -5.03125 16.132812 -5.097656 18.59375 -5.234375 L 18.59375 -10.84375 L 13.5625 -10.84375 L 13.5625 -15.5 L 25.5625 -15.5 Z M 25.5625 -0.578125 "/></g></g></g><g fill="#0091ff" fill-opacity="1"><g transform="translate(928.706841, 482.026902)"><g/></g></g><g fill="#0091ff" fill-opacity="1"><g transform="translate(961.551173, 482.026902)"><g><path d="M 1.515625 -5.609375 C 8.585938 -5.222656 13.375 -5.03125 15.875 -5.03125 C 16.46875 -5.03125 16.9375 -5.203125 17.28125 -5.546875 C 17.632812 -5.898438 17.8125 -6.375 17.8125 -6.96875 L 17.8125 -10.453125 L 8.90625 -10.453125 C 6.195312 -10.453125 4.226562 -11.066406 3 -12.296875 C 1.769531 -13.523438 1.15625 -15.492188 1.15625 -18.203125 L 1.15625 -19.375 C 1.15625 -22.082031 1.769531 -24.046875 3 -25.265625 C 4.226562 -26.492188 6.195312 -27.109375 8.90625 -27.109375 L 22.5 -27.109375 L 22.5 -21.6875 L 10.453125 -21.6875 C 8.910156 -21.6875 8.140625 -20.914062 8.140625 -19.375 L 8.140625 -18.59375 C 8.140625 -17.039062 8.910156 -16.265625 10.453125 -16.265625 L 17.4375 -16.265625 C 19.957031 -16.265625 21.8125 -15.671875 23 -14.484375 C 24.195312 -13.296875 24.796875 -11.4375 24.796875 -8.90625 L 24.796875 -6.96875 C 24.796875 -4.4375 24.195312 -2.578125 23 -1.390625 C 21.8125 -0.203125 19.957031 0.390625 17.4375 0.390625 C 16.113281 0.390625 14.71875 0.363281 13.25 0.3125 L 9.6875 0.15625 C 7.050781 0.03125 4.328125 -0.148438 1.515625 -0.390625 Z M 1.515625 -5.609375 "/></g></g></g><g fill="#0091ff" fill-opacity="1"><g transform="translate(1008.726239, 482.026902)"><g><path d="M 19.75 -19.75 C 19.75 -21.300781 18.976562 -22.078125 17.4375 -22.078125 L 10.84375 -22.078125 C 9.289062 -22.078125 8.515625 -21.300781 8.515625 -19.75 L 8.515625 -7.359375 C 8.515625 -5.804688 9.289062 -5.03125 10.84375 -5.03125 L 17.4375 -5.03125 C 18.976562 -5.03125 19.75 -5.804688 19.75 -7.359375 Z M 26.734375 -7.359375 C 26.734375 -4.648438 26.117188 -2.679688 24.890625 -1.453125 C 23.660156 -0.222656 21.691406 0.390625 18.984375 0.390625 L 9.296875 0.390625 C 6.585938 0.390625 4.617188 -0.222656 3.390625 -1.453125 C 2.160156 -2.679688 1.546875 -4.648438 1.546875 -7.359375 L 1.546875 -19.75 C 1.546875 -22.46875 2.160156 -24.4375 3.390625 -25.65625 C 4.617188 -26.882812 6.585938 -27.5 9.296875 -27.5 L 18.984375 -27.5 C 21.691406 -27.5 23.660156 -26.882812 24.890625 -25.65625 C 26.117188 -24.4375 26.734375 -22.46875 26.734375 -19.75 Z M 26.734375 -7.359375 "/></g></g></g><g fill="#0091ff" fill-opacity="1"><g transform="translate(1058.225196, 482.026902)"><g><path d="M 9.296875 -5.421875 L 23.4375 -5.421875 L 23.4375 0 L 2.328125 0 L 2.328125 -27.109375 L 9.296875 -27.109375 Z M 9.296875 -5.421875 "/></g></g></g><g fill="#0091ff" fill-opacity="1"><g transform="translate(1103.270022, 482.026902)"><g><path d="M 19.75 -27.109375 L 26.734375 -27.109375 L 26.734375 -7.359375 C 26.734375 -4.648438 26.117188 -2.679688 24.890625 -1.453125 C 23.660156 -0.222656 21.691406 0.390625 18.984375 0.390625 L 10.078125 0.390625 C 7.359375 0.390625 5.382812 -0.222656 4.15625 -1.453125 C 2.9375 -2.679688 2.328125 -4.648438 2.328125 -7.359375 L 2.328125 -27.109375 L 9.296875 -27.109375 L 9.296875 -7.359375 C 9.296875 -5.804688 10.070312 -5.03125 11.625 -5.03125 L 17.4375 -5.03125 C 18.976562 -5.03125 19.75 -5.804688 19.75 -7.359375 Z M 19.75 -27.109375 "/></g></g></g><g fill="#0091ff" fill-opacity="1"><g transform="translate(1153.543625, 482.026902)"><g><path d="M 15.5 0 L 8.515625 0 L 8.515625 -21.6875 L 0.390625 -21.6875 L 0.390625 -27.109375 L 23.625 -27.109375 L 23.625 -21.6875 L 15.5 -21.6875 Z M 15.5 0 "/></g></g></g><g fill="#0091ff" fill-opacity="1"><g transform="translate(1198.7821, 482.026902)"><g><path d="M 15.109375 0 L 1.15625 0 L 1.15625 -5.421875 L 4.640625 -5.421875 L 4.640625 -21.6875 L 1.15625 -21.6875 L 1.15625 -27.109375 L 15.109375 -27.109375 L 15.109375 -21.6875 L 11.625 -21.6875 L 11.625 -5.421875 L 15.109375 -5.421875 Z M 15.109375 0 "/></g></g></g><g fill="#0091ff" fill-opacity="1"><g transform="translate(1236.274261, 482.026902)"><g><path d="M 19.75 -19.75 C 19.75 -21.300781 18.976562 -22.078125 17.4375 -22.078125 L 10.84375 -22.078125 C 9.289062 -22.078125 8.515625 -21.300781 8.515625 -19.75 L 8.515625 -7.359375 C 8.515625 -5.804688 9.289062 -5.03125 10.84375 -5.03125 L 17.4375 -5.03125 C 18.976562 -5.03125 19.75 -5.804688 19.75 -7.359375 Z M 26.734375 -7.359375 C 26.734375 -4.648438 26.117188 -2.679688 24.890625 -1.453125 C 23.660156 -0.222656 21.691406 0.390625 18.984375 0.390625 L 9.296875 0.390625 C 6.585938 0.390625 4.617188 -0.222656 3.390625 -1.453125 C 2.160156 -2.679688 1.546875 -4.648438 1.546875 -7.359375 L 1.546875 -19.75 C 1.546875 -22.46875 2.160156 -24.4375 3.390625 -25.65625 C 4.617188 -26.882812 6.585938 -27.5 9.296875 -27.5 L 18.984375 -27.5 C 21.691406 -27.5 23.660156 -26.882812 24.890625 -25.65625 C 26.117188 -24.4375 26.734375 -22.46875 26.734375 -19.75 Z M 26.734375 -7.359375 "/></g></g></g><g fill="#0091ff" fill-opacity="1"><g transform="translate(1285.773217, 482.026902)"><g><path d="M 25.953125 0 L 18.59375 0 L 9.296875 -16.265625 L 9.296875 0 L 2.328125 0 L 2.328125 -27.109375 L 9.6875 -27.109375 L 18.984375 -10.84375 L 18.984375 -27.109375 L 25.953125 -27.109375 Z M 25.953125 0 "/></g></g></g><g fill="#0091ff" fill-opacity="1"><g transform="translate(1335.272173, 482.026902)"><g><path d="M 1.515625 -5.609375 C 8.585938 -5.222656 13.375 -5.03125 15.875 -5.03125 C 16.46875 -5.03125 16.9375 -5.203125 17.28125 -5.546875 C 17.632812 -5.898438 17.8125 -6.375 17.8125 -6.96875 L 17.8125 -10.453125 L 8.90625 -10.453125 C 6.195312 -10.453125 4.226562 -11.066406 3 -12.296875 C 1.769531 -13.523438 1.15625 -15.492188 1.15625 -18.203125 L 1.15625 -19.375 C 1.15625 -22.082031 1.769531 -24.046875 3 -25.265625 C 4.226562 -26.492188 6.195312 -27.109375 8.90625 -27.109375 L 22.5 -27.109375 L 22.5 -21.6875 L 10.453125 -21.6875 C 8.910156 -21.6875 8.140625 -20.914062 8.140625 -19.375 L 8.140625 -18.59375 C 8.140625 -17.039062 8.910156 -16.265625 10.453125 -16.265625 L 17.4375 -16.265625 C 19.957031 -16.265625 21.8125 -15.671875 23 -14.484375 C 24.195312 -13.296875 24.796875 -11.4375 24.796875 -8.90625 L 24.796875 -6.96875 C 24.796875 -4.4375 24.195312 -2.578125 23 -1.390625 C 21.8125 -0.203125 19.957031 0.390625 17.4375 0.390625 C 16.113281 0.390625 14.71875 0.363281 13.25 0.3125 L 9.6875 0.15625 C 7.050781 0.03125 4.328125 -0.148438 1.515625 -0.390625 Z M 1.515625 -5.609375 "/></g></g></g><path stroke-linecap="round" transform="matrix(0, 0.75, -0.75, 0, 454.423903, 261.978523)" fill="none" stroke-linejoin="miter" d="M 3.002595 2.997496 L 378.403655 2.997496 " stroke="#0091ff" stroke-width="6" stroke-opacity="1" stroke-miterlimit="4"/></svg>